<?xml version="1.0" encoding="utf-8"?>
<!-- Generator: Adobe Illustrator 19.0.0, SVG Export Plug-In . SVG Version: 6.00 Build 0)  -->
<svg version="1.1" xmlns="http://www.w3.org/2000/svg" xmlns:xlink="http://www.w3.org/1999/xlink" x="0px" y="0px"
	 viewBox="0 0 75 130.8" style="enable-background:new 0 0 75 130.8;" xml:space="preserve">
<style type="text/css">
	.st0{opacity:0.84;fill:url(#XMLID_2_);}
	.st1{opacity:0.87;fill:url(#XMLID_8_);}
	.st2{opacity:0.95;fill:url(#XMLID_15_);}
	.st3{opacity:0.95;fill:url(#XMLID_16_);}
	.st4{fill:#FBB03B;}
	.st5{fill:#FFFEFE;}
	.st6{display:none;}
	.st7{display:inline;opacity:0.92;fill:#00FFFF;}
	.st8{opacity:0.37;}
	.st9{fill:#B3B3B3;}
</style>
<g id="Layer_2">
	<linearGradient id="XMLID_2_" gradientUnits="userSpaceOnUse" x1="64.2055" y1="55.943" x2="16.8929" y2="10.064">
		<stop  offset="0" style="stop-color:#FF1D25"/>
		<stop  offset="0.216" style="stop-color:#C21659"/>
		<stop  offset="0.6041" style="stop-color:#5B0AB1"/>
		<stop  offset="0.8737" style="stop-color:#1903E9"/>
		<stop  offset="1" style="stop-color:#0000FF"/>
	</linearGradient>
	<path id="XMLID_57_" class="st0" d="M66.8,53H14.1c-2.2,0-4-1.8-4-4V16.8c0-2.2,1.8-4,4-4h52.7c2.2,0,4,1.8,4,4V49
		C70.8,51.2,69,53,66.8,53z"/>
</g>
<g id="Layer_3">
	<linearGradient id="XMLID_8_" gradientUnits="userSpaceOnUse" x1="48.8486" y1="119.5363" x2="3.7374" y2="75.792">
		<stop  offset="0" style="stop-color:#0000FF"/>
		<stop  offset="0.1263" style="stop-color:#1903E9"/>
		<stop  offset="0.3959" style="stop-color:#5B0AB1"/>
		<stop  offset="0.784" style="stop-color:#C21659"/>
		<stop  offset="1" style="stop-color:#FF1D25"/>
	</linearGradient>
	<path id="XMLID_13_" class="st1" d="M46.2,121.9h-40c-2.2,0-4-1.8-4-4V77.2c0-2.2,1.8-4,4-4h40c2.2,0,4,1.8,4,4v40.8
		C50.2,120.1,48.4,121.9,46.2,121.9z"/>
</g>
<g id="Layer_4">
	<linearGradient id="XMLID_15_" gradientUnits="userSpaceOnUse" x1="39" y1="78.0417" x2="73.75" y2="78.0417">
		<stop  offset="0.1828" style="stop-color:#808080"/>
		<stop  offset="0.9355" style="stop-color:#1B1464"/>
	</linearGradient>
	<path id="XMLID_63_" class="st2" d="M69.8,87.9H43c-2.2,0-4-1.8-4-4V72.2c0-2.2,1.8-4,4-4h26.8c2.2,0,4,1.8,4,4v11.8
		C73.8,86.1,72,87.9,69.8,87.9z"/>
</g>
<g id="Layer_6">
	<linearGradient id="XMLID_16_" gradientUnits="userSpaceOnUse" x1="5.4167" y1="56.8125" x2="58.0833" y2="56.8125">
		<stop  offset="0" style="stop-color:#006DFF"/>
		<stop  offset="0.377" style="stop-color:#3F7FD5"/>
		<stop  offset="0.7964" style="stop-color:#8092AA"/>
		<stop  offset="0.9946" style="stop-color:#999999"/>
	</linearGradient>
	<path id="XMLID_19_" class="st3" d="M54.1,64.8H9.4c-2.2,0-4-1.8-4-4v-8c0-2.2,1.8-4,4-4h44.7c2.2,0,4,1.8,4,4v8
		C58.1,63,56.3,64.8,54.1,64.8z"/>
</g>
<g id="Layer_5">
	<ellipse id="XMLID_67_" class="st4" cx="53.4" cy="94.8" rx="9.4" ry="9"/>
</g>
<g id="Layer_7">
	<g id="XMLID_14_">
		<g id="XMLID_17_">
			<path id="XMLID_20_" class="st5" d="M53.3,88.8c1.8,0,3.6,1,3.6,3.4c0,2.2-2.1,3.1-2.5,3.9c-0.3,0.6-0.2,1.4-1.2,1.4
				c-0.6,0-0.9-0.6-0.9-1.1c0-2,2.5-2.5,2.5-4.2c0-0.9-0.5-1.5-1.4-1.5c-1.8,0-1.1,2.2-2.5,2.2c-0.5,0-0.9-0.4-0.9-1
				C50,90.3,51.6,88.8,53.3,88.8z M53.2,98.7c0.6,0,1.2,0.6,1.2,1.4s-0.5,1.4-1.2,1.4s-1.2-0.6-1.2-1.4
				C52.1,99.3,52.6,98.7,53.2,98.7z"/>
		</g>
	</g>
</g>
<g id="Layer_8" class="st6">
	<ellipse id="XMLID_24_" class="st7" cx="12.4" cy="14.8" rx="9.4" ry="9"/>
</g>
<g id="Layer_9">
	<g id="XMLID_3_" class="st8">
		<g id="XMLID_80_">
			<path id="XMLID_31_" class="st9" d="M12.6,90.6c2.9-1.5,5.8-2.9,9.3-2.2c1.4,0.3,2.5,1.3,4,1.6c4.2,0.8,9.1,0.1,13.4,0.1
				c0.6,0,0.6-1,0-1c-2.9,0-5.7,0-8.6,0c-3.5,0-6.3-1.2-9.5-2.2c-3.2-0.9-6.3,1.3-9,2.7C11.5,90,12,90.9,12.6,90.6L12.6,90.6z"/>
		</g>
	</g>
	<g id="XMLID_4_" class="st8">
		<g id="XMLID_74_">
			<path id="XMLID_30_" class="st9" d="M14.1,105.3c1.3-0.4,2.4-1,3.6-1.5c3.2-1.4,5.5-0.7,8.6,0.1c3.6,0.9,7.3,0.5,10.9,0.3
				c0.6,0,0.6-1,0-1c-2.4,0.1-5,0.3-7.4,0.2c-2.5-0.2-4.8-1.4-7.2-1.7c-3.2-0.4-5.8,1.6-8.7,2.5C13.3,104.6,13.5,105.5,14.1,105.3
				L14.1,105.3z"/>
		</g>
	</g>
	<g id="XMLID_5_" class="st8">
		<g id="XMLID_68_">
			<path id="XMLID_28_" class="st9" d="M47.1,79c2.1-1.2,3.8-1.8,6.3-1.4c0.8,0.1,1.5,0.3,2.2,0.4c2.9,0.4,5.7,0.2,8.6-0.1
				c0.6-0.1,0.6-1,0-1c-4,0.3-7.5,0-11.5-0.5c-2.3-0.3-4.2,0.6-6.2,1.7C46,78.5,46.5,79.3,47.1,79L47.1,79z"/>
		</g>
	</g>
	<g id="XMLID_6_" class="st8">
		<g id="XMLID_60_">
			<path id="XMLID_12_" class="st9" d="M15.2,57.7c4.4-1.1,9.4-0.3,14-0.5c4.6-0.2,9.2,0.1,13.8,0.2c0.6,0,0.6-1,0-1
				c-5.2-0.1-10.4-0.5-15.6-0.1c-4.2,0.3-8.3-0.6-12.5,0.4C14.3,56.9,14.6,57.9,15.2,57.7L15.2,57.7z"/>
		</g>
	</g>
	<g id="XMLID_7_" class="st8">
		<g id="XMLID_53_">
			<path id="XMLID_11_" class="st9" d="M26.4,27.4c1.8,0.5,2.9,0.5,4.8,0.3c1.6-0.2,2.8-0.5,4.5-0.2c0.8,0.2,1.6,0.5,2.5,0.7
				c5.4,0.9,10.9-1.3,16.3-1.5c0.6,0,0.6-1,0-1c-4.7,0.1-9.2,1.8-13.9,1.7c-2.4-0.1-4.5-1.3-6.8-1.5c-2.7-0.2-4.1,1.4-7.2,0.6
				C26,26.3,25.8,27.2,26.4,27.4L26.4,27.4z"/>
		</g>
	</g>
	<g id="XMLID_9_" class="st8">
		<g id="XMLID_42_">
			<path id="XMLID_10_" class="st9" d="M26.6,41.6c2.2-1.9,4.7-0.9,7.3-0.9c1.9,0,2.9-0.7,4.6-0.9c4.7-0.3,9.6,0.3,14.4-0.1
				c0.6-0.1,0.6-1,0-1c-3.7,0.3-7.6,0.8-11.3,0.4c-1.6-0.2-2.6-0.5-4.1-0.4c-1.5,0.1-2.9,1-4.5,0.9c-1.3-0.1-2.5-0.5-3.9-0.3
				c-1.6,0.2-2.3,0.6-3.4,1.5C25.4,41.4,26.2,42.1,26.6,41.6L26.6,41.6z"/>
		</g>
	</g>
</g>
</svg>
