<?xml version="1.0" encoding="utf-8"?>
<!-- Generator: Adobe Illustrator 19.0.0, SVG Export Plug-In . SVG Version: 6.00 Build 0)  -->
<svg version="1.1" xmlns="http://www.w3.org/2000/svg" xmlns:xlink="http://www.w3.org/1999/xlink" x="0px" y="0px"
	 viewBox="0 0 75 130" style="enable-background:new 0 0 75 130;" xml:space="preserve">
<style type="text/css">
	.st0{fill:url(#XMLID_96_);}
	.st1{fill:url(#XMLID_97_);}
	.st2{fill:#FFFEFE;}
	.st3{opacity:0.67;fill:url(#XMLID_98_);}
</style>
<g id="Layer_1">
	<linearGradient id="XMLID_96_" gradientUnits="userSpaceOnUse" x1="114.1476" y1="67.7066" x2="-9.1256" y2="63.6184">
		<stop  offset="0" style="stop-color:#00FFFF;stop-opacity:0.5"/>
		<stop  offset="0.9946" style="stop-color:#FF1D25"/>
	</linearGradient>
	<path id="XMLID_1_" class="st0" d="M70.4,128.8h-66c-1.9,0-3.4-1.5-3.4-3.4V4.7c0-1.7,1.4-3.2,3.2-3.2h66.5c1.7,0,3.2,1.4,3.2,3.2
		v120.8C73.9,127.3,72.3,128.8,70.4,128.8z"/>
</g>
<g id="Layer_2">
	<linearGradient id="XMLID_97_" gradientUnits="userSpaceOnUse" x1="102.5101" y1="62.218" x2="-2.1722" y2="58.7464">
		<stop  offset="0" style="stop-color:#1B1464"/>
		<stop  offset="0.1019" style="stop-color:#211A68;stop-opacity:0.949"/>
		<stop  offset="0.2383" style="stop-color:#312B73;stop-opacity:0.8808"/>
		<stop  offset="0.3942" style="stop-color:#4C4785;stop-opacity:0.8029"/>
		<stop  offset="0.5648" style="stop-color:#726E9E;stop-opacity:0.7176"/>
		<stop  offset="0.747" style="stop-color:#A3A0BE;stop-opacity:0.6265"/>
		<stop  offset="0.9364" style="stop-color:#DDDCE4;stop-opacity:0.5318"/>
		<stop  offset="1" style="stop-color:#F2F2F2;stop-opacity:0.5"/>
	</linearGradient>
	<path id="XMLID_76_" class="st1" d="M65.4,111.6H9.3c-1.6,0-3-1.3-3-3V11.5c0-1.6,1.3-3,3-3h56.1c1.6,0,3,1.3,3,3v97.1
		C68.4,110.2,67,111.6,65.4,111.6z"/>
</g>
<g id="Layer_3">
	<g id="XMLID_1102_">
		<g id="XMLID_1104_">
			<path id="XMLID_1107_" class="st2" d="M36.1,25.7c10.4,0,20.6,5.3,20.6,18.1c0,11.8-12.1,16.3-14.7,20.5
				c-1.9,3.2-1.3,7.6-6.7,7.6c-3.5,0-5.2-3.2-5.2-6.1c0-10.8,14.2-13.2,14.2-22.1c0-4.9-2.9-7.8-7.8-7.8c-10.4,0-6.3,11.9-14.2,11.9
				c-2.8,0-5.3-1.9-5.3-5.5C17.1,33.6,26.2,25.7,36.1,25.7z M35.7,77.8c3.6,0,6.7,3.3,6.7,7.4c0,4.1-3,7.4-6.7,7.4s-6.7-3.3-6.7-7.4
				C29.1,81.1,32.1,77.8,35.7,77.8z"/>
		</g>
	</g>
</g>
<g id="Layer_4">
	<linearGradient id="XMLID_98_" gradientUnits="userSpaceOnUse" x1="30.5187" y1="120.3342" x2="43.3219" y2="120.3342">
		<stop  offset="0" style="stop-color:#00FFFF;stop-opacity:0.5"/>
		<stop  offset="0.9946" style="stop-color:#FF1D25"/>
	</linearGradient>
	<circle id="XMLID_70_" class="st3" cx="36.9" cy="120.3" r="6.4"/>
</g>
</svg>
