<?xml version="1.0" encoding="utf-8"?>
<!-- Generator: Adobe Illustrator 19.0.0, SVG Export Plug-In . SVG Version: 6.00 Build 0)  -->
<svg version="1.1" xmlns="http://www.w3.org/2000/svg" xmlns:xlink="http://www.w3.org/1999/xlink" x="0px" y="0px"
	 viewBox="0 0 75.7 130" style="enable-background:new 0 0 75.7 130;" xml:space="preserve">
<style type="text/css">
	.st0{fill:url(#XMLID_81_);}
	.st1{fill:#FFFFFF;}
</style>
<g id="Layer_1">
	<linearGradient id="XMLID_81_" gradientUnits="userSpaceOnUse" x1="73.3396" y1="109.3573" x2="5.7562" y2="20.2213">
		<stop  offset="0" style="stop-color:#1B1464"/>
		<stop  offset="0.8065" style="stop-color:#FF1D25;stop-opacity:0.7"/>
	</linearGradient>
	<circle id="XMLID_1_" class="st0" cx="38" cy="62.8" r="37.6"/>
</g>
<g id="Layer_2">
	<g id="XMLID_1079_">
		<path id="XMLID_1072_" class="st1" d="M46.8,79.1c0.7-1.3,4.3-9,4.2-16c0,0,0.1-2.4-1.6-3.1c-0.5-0.2-3.6-1.7-3.9-2
			c0,0-1.9-4.4-3.4-6.4c-3.5-4.6-6.3-7-7.1-7.6c-0.5-0.4-1.7-0.9-4.1-3.6c-1.9-2.2-2-4.4-3.4-4.4c-0.1,0-0.2,0-0.5,0.1
			c-0.8,0.2-4.1,3.2-1.4,8.1c0,0,1.4,2.4,3.8,4.7c0,0,3.3,3.2-0.3,5.5c0,0-2.4,1.3-5.2,1.1c-1.2-0.1-3-0.4-3.5-0.5
			C19.9,54.7,18,54,16.5,55c-2.9,1.9-1.2,19.2,5.4,25.1c2.5,2.2,11.1,3,15.8,1.5c0,0,2.7-1,4.1-0.9c1.9,0.2,3.1-0.1,3.1-0.1
			S46.1,80.4,46.8,79.1z"/>
		<path id="XMLID_1071_" class="st1" d="M57.5,59.8c-2.3-0.4-4.4-0.8-4.8-0.8c-0.4,0-0.4,0.5-0.1,0.7c0.4,0.2,1,1,1.1,2.6
			c0,1.1,0.8,8.4-4.7,18.4c-1.3,2.3-2.2,2.2-3.9,2.4c0.1,1.1,1.6,1.7,1.6,1.7s4.8,1.7,7.7,0.7c0,0,4.3-1,7-9.7
			c0.7-2.4,1.3-4.9,1.5-7c0.1-1,0.2-1.9,0.2-2.7C63.1,61.9,60.3,60.4,57.5,59.8z"/>
	</g>
</g>
</svg>
